<?xml version="1.0" encoding="utf-8"?>
<!-- Generator: Adobe Illustrator 23.0.1, SVG Export Plug-In . SVG Version: 6.00 Build 0)  -->
<svg version="1.1" id="Layer_1" xmlns="http://www.w3.org/2000/svg" xmlns:xlink="http://www.w3.org/1999/xlink" x="0px" y="0px"
	 viewBox="0 0 4103.1 1634.6" style="enable-background:new 0 0 4103.1 1634.6;" xml:space="preserve">
<style type="text/css">
	.st0{fill:none;}
</style>
<path class="st0" d="M4064.4,396.3H1462.9v998.2h2606.5V396.3H4064.4z M3957.6,1272.9h45.5v12.8h-18.8v98.4h-7.9v-98.4h-18.8
	L3957.6,1272.9z"/>
<path d="M3976.4,1384.1h7.9v-98.4h18.8v-12.8h-45.5v12.8h18.8L3976.4,1384.1z"/>
<path class="st0" d="M4064.4,83.5H1462.9v998.2h2606.5V83.5H4064.4z M4010.4,960.1h10.9l17,95l16.4-95h9.6v111.2h-6.6V981
	l-15.8,90.4h-7.9l-15.8-90.4v90.4h-7.9L4010.4,960.1L4010.4,960.1z"/>
<path d="M4018.4,1293.8l15.8,90.3h7.9l15.8-90.3v90.3h6.6v-111.2h-9.6l-16.4,95l-17-95h-10.9v111.2h7.9L4018.4,1293.8z
	 M2713.6,1117.8V658c0-93.8,23.1-161,72.3-161h303.8c1.9,0,3.6-3.5,3.6-7v-91.5c0-0.8-0.1-1.6-0.3-2.3h-371.5
	c-80.5,19.4-119.9,125.8-119.9,261.7v459.7c0,93.8-23.7,161-72.3,161h-320.8c-1.8,0-3.6,2.3-3.6,6.9v91.5c0,3.8,1.2,6.7,2.7,7.7
	h364.3C2666.8,1380.1,2713.6,1265.2,2713.6,1117.8L2713.6,1117.8z M1465.4,1384.8h106.7c1.6-1.2,2.7-4.3,2.7-7.6v-293
	c0-93.8,27.9-158.7,68.7-158.7h439.4c99.1,0,147.1-115.8,147.1-267.5c0-136-39.3-242.3-119.9-261.7h-646.6c-0.2,0.8-0.5,1.4-0.5,2.3
	v91.5c0,4.6,1.2,7,3.6,7h579.1c49.2,0,72.3,67.2,72.3,161c0,93.8-23.1,161-72.3,161h-458.2c-71.1,0-124.6,114.7-124.6,265.2v293
	C1462.9,1381,1463.8,1383.9,1465.4,1384.8L1465.4,1384.8z"/>
<g>
	<path class="st0" d="M3185.7,1172.2H3675c1.8,0,3.6-3.5,3.6-6.9V594.3c0-12.7-6.1-13.9-9.2-9.3L3182.8,1156
		c-3.1,3.5-4.3,6.9-3.6,11.6C3179.7,1169.9,3181.5,1172.2,3185.7,1172.2L3185.7,1172.2z"/>
	<path d="M3091.6,1278.8H3675c1.8,0,3,2.3,3,4.6v93.8c0,4.6,1.9,6.9,3.6,6.9h105.2c1.9,0,3.6-2.3,3.6-6.9v-91.5
		c0-3.5,1.9-6.9,3.6-6.9h104.5c2.4,0,3.6-3.5,3.6-6.9v-92.7c0-3.5-1.2-6.9-3.6-6.9h-104.5c-1.8,0-3.6-3.5-3.6-6.9V497.1
		c0-54.5-10.7-89.3-28.7-100.8h-30.4c-9.5,4.6-19.8,12.9-30.8,25.5l-628.4,735.4c-24.3,28.9-32.8,61.4-26.8,85.7
		C3050.3,1263.7,3064.2,1278.8,3091.6,1278.8L3091.6,1278.8z M3182.8,1156l486.8-570.9c3.1-4.6,9.2-3.5,9.2,9.3v570.9
		c0,3.5-1.9,6.9-3.6,6.9h-489.3c-4.2,0-6.1-2.3-6.7-4.6C3178.4,1162.9,3179.7,1159.5,3182.8,1156L3182.8,1156z"/>
</g>
<g>
	<path d="M407.6,27.2C455,44,501.6,67.9,548,92.8c26.5,14.6,53,29.7,79.3,45.8c41.3,24.9,82.4,53.1,119.8,95.2
		c16.7,19.3,32.8,41.1,46.6,67.6c14.9,27.7,27.1,60.2,36,95.9c16.3,64.5,21.9,136.6,23.5,207.5c0.8,46.3,0.7,92.9-3.8,138.6
		c-3.8,39.7-10.5,78.8-21.7,113.3c-9.9,30.4-23.6,56.8-40.3,73.7c-16,16.4-34.3,24.1-52.5,23.5c-27.5,0.5-54.2-16.1-78.9-37.9
		c-0.5-155.7-0.1-311.5-0.2-467.2c-0.2-28.2,0.8-56.6-2.2-84.4c-2.1-21.5-6.7-43.2-15.7-57.9c-5.9-10.1-13.6-15.8-21.3-18.9
		c-7.8-2.8-16.1,3.5-20.9,15.3c-8,19-10.1,44.2-10.5,67.8c-0.1,416.9,0.1,833.8-0.1,1250.7c-59.2-35.5-118.3-71.1-177.5-106.8
		C407.5,1019,407.6,523.1,407.6,27.2L407.6,27.2z M141.7,1082.2c77.1-51.8,154.2-104.1,231.4-155.6c0.1,57.4,0,114.8,0,172.3
		c0,7.8,0.2,15.6-0.3,23.4c-61,41-121.9,82.7-182.8,123.9c-8.4,6.1-17.1,12.9-23.6,25.1c-3,5.7-5.5,14.2-3.9,22.4
		c2.1,9.7,7.3,15,12.1,18.9c13.4,10.3,28,11.8,42.2,13c15.9-0.5,31.8-2.7,47.4-9.2c10.5-3.9,20.6-10.6,30.6-17.8
		c26-17.9,52.1-35.8,78.2-53.5c0.2,48.6,0,97.2,0.1,145.8c-0.1,9.7,0.2,19.5-0.3,29.1c-32,10.9-64.4,18.3-97,19.3
		c-65.5,2.8-131.3-16.4-193.5-55.3c-20.4-11.2-40.7-26.2-57.8-50.7c-9.4-13.8-17.8-31.1-22.1-52.4c-3.6-18.1-3.3-38.9,1.1-56.3
		c4.3-17.4,11.8-31.1,20.1-41.8c19.1-25,40.2-44.2,61.6-61.2C103.7,1106.8,122.8,1095.2,141.7,1082.2L141.7,1082.2z"/>
	<path d="M762.3,1016.8c17.5-3.8,35.1-4.7,52.7-5.9c57.9,0.4,116,14,171.4,47c10.9,6.3,21.4,14.4,32.2,20.9
		c19.3,13.4,38.6,29.6,54,55.8c9.3,16,17.3,37.6,17.4,62.3c0.6,20.1-4.2,39.4-11.1,54.2c-13.1,27.8-30.4,46.9-47.7,63.6
		c-18.5,17.9-38.3,29.4-57.7,43c-118.2,80.5-236.5,160.9-354.7,241.5c0-62.8,0-125.6,0-188.3c0.2-2.5-0.5-6.9,1.3-7.5
		c90-60.7,179.9-121.5,269.9-182.4c12.2-8.6,25.3-14.9,35.6-30.5c4.2-6.3,8.4-16.3,6.3-27.1c-2.2-9.4-7.3-14.6-12.1-18.6
		c-13.5-10.1-28.1-12.1-42.4-12.8c-22.4,0.3-45,5.5-66.4,19.2c-64.1,42.6-128,85.6-192.1,128.1c0-67.4,0-134.8,0-202.2
		C665.1,1046.2,713.5,1027.5,762.3,1016.8L762.3,1016.8z M1025.1,1481.2c14-3.3,28.6,8.6,37,30.1c9.2,22.2,10.8,54.2,4.4,79.5
		c-6.5,26.3-21.4,44.7-36.9,43.8c-14.2,0.6-28-15.1-35-38.3c-6.3-20.5-7.1-46.7-2.2-68.5C997.9,1502.6,1010.9,1484.3,1025.1,1481.2
		L1025.1,1481.2z M1022.1,1495.4c-7.9,3.5-14.9,12.3-19.6,24.7c-5.7,14.8-7.7,33.6-5.6,51.4c1.9,16.5,7.2,30.9,14.6,40
		c11.4,14.1,27.3,13.4,38.1-2.2c11.2-15,16.5-43.8,12.7-68.8c-2.4-16.9-8.7-31.2-16.7-39.6
		C1038.4,1493.9,1029.9,1491.8,1022.1,1495.4L1022.1,1495.4z"/>
	<path d="M1012.4,1513.4c7.3-0.1,14.6,0,21.9,0c4.1,0.1,8.7,1.9,11.6,7.9c2.9,6.3,3.2,15.5,2.4,23.3c-0.5,5.2-2.9,8.3-4.6,11.9
		c1.5,2.6,3.5,5,3.8,9.2c0.8,8,0,16.4,1.3,24.2c0.8,2.8,1.7,5.6,1.8,8.9c-3,0.2-6,0.1-9.1,0.2c-2-9.1-0.5-19.3-1.8-28.7
		c-0.5-3.8-2.6-6.2-4.6-6.1c-4.9-0.4-9.9-0.1-14.8-0.1c-0.1,11.6,0.2,23.3-0.2,34.9c-2.6-0.1-5.2-0.1-7.7,0
		C1012.3,1570.4,1012.4,1541.9,1012.4,1513.4L1012.4,1513.4z M1020.3,1527v23.6c4.4,0.1,8.8,0.1,13.3,0c2.2,0,4.7-0.8,6.2-4.3
		c1.5-4.6,1.5-10.3,0.1-15c-1.1-3.6-3.5-4-5.5-4.2C1029.7,1526.8,1025,1527,1020.3,1527L1020.3,1527z"/>
</g>
</svg>
